<svg xmlns="http://www.w3.org/2000/svg" width="920" height="240" viewBox="0 0 920 240" role="img" aria-labelledby="title desc">
  <title id="title">A360 Assistant</title>
  <desc id="desc">MetaFlow 팀의 A360 작업 추천 AI 플랫폼 로고</desc>
  <rect width="920" height="240" rx="30" fill="#0F1E36"/>
  <rect x="1.5" y="1.5" width="917" height="237" rx="28.5" fill="none" stroke="#29466F" stroke-width="3"/>

  <g transform="translate(48 42)">
    <rect width="156" height="156" rx="32" fill="#17345D"/>
    <path d="M31 106 C52 106 55 50 79 50 C103 50 105 106 126 106" fill="none" stroke="#2F6BEE" stroke-width="13" stroke-linecap="round"/>
    <path d="M31 106 C53 106 61 77 79 77 C97 77 105 106 126 106" fill="none" stroke="#20C4D9" stroke-width="7" stroke-linecap="round"/>
    <circle cx="31" cy="106" r="12" fill="#FFFFFF" stroke="#2F6BEE" stroke-width="6"/>
    <circle cx="79" cy="50" r="12" fill="#FFFFFF" stroke="#20C4D9" stroke-width="6"/>
    <circle cx="126" cy="106" r="12" fill="#FFFFFF" stroke="#2F6BEE" stroke-width="6"/>
  </g>

  <g font-family="Pretendard, 'Noto Sans KR', Arial, sans-serif">
    <text x="238" y="76" fill="#7FA9FF" font-size="20" font-weight="700" letter-spacing="2">1조 · METAFLOW</text>
    <text x="234" y="143" fill="#FFFFFF" font-size="62" font-weight="800" letter-spacing="-1">A360 Assistant</text>
    <text x="238" y="185" fill="#B8C8E2" font-size="22" font-weight="500">업무정의서에서 실행 가능한 자동화 흐름까지</text>
  </g>

  <g transform="translate(750 48)" font-family="Pretendard, 'Noto Sans KR', Arial, sans-serif">
    <rect width="122" height="40" rx="20" fill="#163454" stroke="#20C4D9" stroke-width="2"/>
    <text x="61" y="26" text-anchor="middle" fill="#55D9E8" font-size="15" font-weight="700">AI × RPA</text>
    <rect y="54" width="122" height="40" rx="20" fill="#1B3158" stroke="#2F6BEE" stroke-width="2"/>
    <text x="61" y="80" text-anchor="middle" fill="#9EBAFF" font-size="15" font-weight="700">WORKFLOW</text>
  </g>
</svg>
